<?xml version="1.0" standalone="no"?><!DOCTYPE svg PUBLIC "-//W3C//DTD SVG 1.1//EN" "http://www.w3.org/Graphics/SVG/1.1/DTD/svg11.dtd"><svg t="1625654847561" class="icon" viewBox="0 0 1024 1024" version="1.1" xmlns="http://www.w3.org/2000/svg" p-id="3846" xmlns:xlink="http://www.w3.org/1999/xlink" width="200" height="200"><defs><style type="text/css"></style></defs><path d="M928 896h-768a32 32 0 0 1-32-32v-192a32 32 0 0 1 64 0V832h704v-160a32 32 0 0 1 64 0v192a32 32 0 0 1-32 32z m-384-256a32 32 0 0 1-32-32v-448a32 32 0 0 1 64 0v448a32 32 0 0 1-32 32z m0 77.248L329.408 502.656a32 32 0 0 1 45.248-45.248L544 626.752l169.344-169.344a32 32 0 0 1 45.248 45.248z" p-id="3847" data-spm-anchor-id="a313x.7781069.0.i23" class="selected" fill="#535c6a"></path></svg>