<?xml version="1.0" standalone="no"?><!DOCTYPE svg PUBLIC "-//W3C//DTD SVG 1.1//EN" "http://www.w3.org/Graphics/SVG/1.1/DTD/svg11.dtd"><svg t="1625654559948" class="icon" viewBox="0 0 1024 1024" version="1.1" xmlns="http://www.w3.org/2000/svg" p-id="6959" xmlns:xlink="http://www.w3.org/1999/xlink" width="200" height="200"><defs><style type="text/css"></style></defs><path d="M512 230.4V128l230.4 128-230.4 128v-102.4c-168.96 0-307.2 128-307.2 286.72V691.2H153.6v-122.88C153.6 381.44 314.88 230.4 512 230.4z" fill="#525C6A" p-id="6960"></path><path d="M358.4 537.6v307.2c0 28.16 23.04 51.2 51.2 51.2h409.6c28.16 0 51.2-23.04 51.2-51.2V537.6c0-28.16-23.04-51.2-51.2-51.2H409.6c-28.16 0-51.2 23.04-51.2 51.2z m51.2 0h409.6v307.2H409.6V537.6z" fill="#525C6A" p-id="6961"></path></svg>